<svg data-name="Subscribe in Apple Podcasts" xmlns="http://www.w3.org/2000/svg" viewBox="0 0 34 34"><defs><linearGradient id="a" x1="16.99" y1="35.99" x2="16.99" y2="2" gradientTransform="matrix(1 0 0 -1 0 36)" gradientUnits="userSpaceOnUse"><stop offset="0" stop-color="#f452ff"/><stop offset="1" stop-color="#832bc1"/></linearGradient></defs><g data-name="&lt;Groupe&gt;"><path data-name="&lt;Tracé&gt;" d="M33.32 29.47a7.2 7.2 0 01-2.17 2.85 7.11 7.11 0 01-2.39 1.24 14.8 14.8 0 01-4.11.43H9.35a14.8 14.8 0 01-4.11-.43 7.19 7.19 0 01-4.57-4.1A13.34 13.34 0 010 24.65V9.36a13.31 13.31 0 01.67-4.82A7.19 7.19 0 015.24.44 14.8 14.8 0 019.35 0h15.3a14.8 14.8 0 014.11.43 7.19 7.19 0 014.57 4.1A13.34 13.34 0 0134 9.36v15.3a13.31 13.31 0 01-.68 4.81z" fill="url(&quot;#a&quot;)"/><path data-name="&lt;Tracé&gt;" d="M33.32 29.47a7.2 7.2 0 01-2.17 2.85 7.11 7.11 0 01-2.39 1.24 14.8 14.8 0 01-4.11.43H9.35a14.8 14.8 0 01-4.11-.43 7.19 7.19 0 01-4.57-4.1A13.34 13.34 0 010 24.65V9.36a13.31 13.31 0 01.67-4.82A7.19 7.19 0 015.24.44 14.8 14.8 0 019.35 0h15.3a14.8 14.8 0 014.11.43 7.19 7.19 0 014.57 4.1A13.34 13.34 0 0134 9.36v15.3a13.31 13.31 0 01-.68 4.81z" fill="none"/><path d="M19.46 19.55a3.41 3.41 0 00-2.46-.89 3.4 3.4 0 00-2.46.88 1.56 1.56 0 00-.45 1 12.7 12.7 0 00.05 2.57c.09 1 .26 2.43.48 3.85a14.73 14.73 0 00.4 1.94 1.92 1.92 0 002 1.18 1.92 1.92 0 002-1.18 14.62 14.62 0 00.4-1.94c.22-1.41.39-2.8.48-3.85a12.82 12.82 0 00.06-2.57 1.56 1.56 0 00-.5-.99zm-5.24-4.79A2.78 2.78 0 1017 12a2.78 2.78 0 00-2.78 2.76zM17 3.78A12 12 0 0013 27a.16.16 0 00.21-.17c-.06-.41-.12-.82-.17-1.22a.41.41 0 00-.24-.32 10.42 10.42 0 118.32 0 .41.41 0 00-.24.32c-.05.4-.11.82-.17 1.22A.16.16 0 0021 27a12 12 0 00-4-23.22zm-.22 5.48a6.47 6.47 0 014.69 11.19.5.5 0 00-.16.39 11.78 11.78 0 010 1.36.16.16 0 00.25.14 8 8 0 10-9 0 .16.16 0 00.24-.14 11.17 11.17 0 010-1.37.49.49 0 00-.16-.39 6.47 6.47 0 014.11-11.18z" fill="#fff" data-name="&lt;Groupe&gt;"/></g></svg>
