<svg fill="none" height="24" width="24" xmlns="http://www.w3.org/2000/svg" xmlns:xlink="http://www.w3.org/1999/xlink"><linearGradient id="a" gradientUnits="userSpaceOnUse" x1="0" x2="0" y1="0" y2="24"><stop offset="0" stop-color="#00ccbf"/><stop offset="1" stop-color="#00b265"/></linearGradient><linearGradient id="b" gradientUnits="userSpaceOnUse" x1="1.57" x2="1.57" y1="1.57" y2="22.433"><stop offset="0" stop-color="#151515"/><stop offset="1" stop-color="#353535"/></linearGradient><g clip-rule="evenodd" fill-rule="evenodd"><path d="m8.367 0h7.265c2.41 0 3.615 0 4.911.41a5.098 5.098 0 0 1 3.047 3.047c.41 1.296.41 2.501.41 4.91v7.266c0 2.409 0 3.614-.41 4.91a5.097 5.097 0 0 1 -3.047 3.047c-1.296.41-2.501.41-4.91.41h-7.266c-2.409 0-3.614 0-4.91-.41a5.097 5.097 0 0 1 -3.047-3.047c-.41-1.296-.41-2.501-.41-4.91v-7.266c0-2.409 0-3.614.41-4.91a5.097 5.097 0 0 1 3.047-3.047c1.296-.41 2.501-.41 4.91-.41z" fill="url(#a)"/><path d="m12.012 1.57c5.766 0 10.441 4.67 10.441 10.432 0 5.76-4.675 10.43-10.441 10.43-5.767 0-10.442-4.67-10.442-10.43 0-5.762 4.675-10.432 10.442-10.432z" fill="url(#b)"/><path d="m16.356 17.95-1.75-2.426a4.411 4.411 0 0 0 1.813-3.568c0-2.44-1.98-4.42-4.423-4.42a4.422 4.422 0 0 0 -4.424 4.42c0 1.472.72 2.776 1.828 3.579l-1.752 2.427a7.4 7.4 0 0 1 -3.074-6.008c0-4.093 3.322-7.412 7.42-7.412s7.42 3.319 7.42 7.412a7.4 7.4 0 0 1 -3.058 5.996zm-4.346-7.784a1.784 1.784 0 1 1 .002 3.568 1.784 1.784 0 0 1 -.002-3.568z" fill="#fff"/></g></svg>