<svg width="24" height="24" fill="none" xmlns="http://www.w3.org/2000/svg"><path fill-rule="evenodd" clip-rule="evenodd" d="M8.367 0h7.265c2.41 0 3.615 0 4.911.41a5.098 5.098 0 013.047 3.047c.41 1.296.41 2.501.41 4.91v7.266c0 2.409 0 3.614-.41 4.91a5.097 5.097 0 01-3.047 3.047c-1.296.41-2.501.41-4.91.41H8.367c-2.409 0-3.614 0-4.91-.41A5.097 5.097 0 01.41 20.543C0 19.247 0 18.042 0 15.633V8.367c0-2.409 0-3.614.41-4.91A5.097 5.097 0 013.457.41C4.753 0 5.958 0 8.367 0z" fill="url(#paint0_linear)"/><path fill-rule="evenodd" clip-rule="evenodd" d="M12.012 1.57c5.766 0 10.441 4.67 10.441 10.432 0 5.76-4.675 10.43-10.441 10.43-5.767 0-10.442-4.67-10.442-10.43C1.57 6.24 6.245 1.57 12.012 1.57z" fill="url(#paint1_linear)"/><path fill-rule="evenodd" clip-rule="evenodd" d="M16.356 17.95l-1.75-2.426a4.411 4.411 0 001.813-3.568c0-2.44-1.98-4.42-4.423-4.42a4.422 4.422 0 00-4.424 4.42c0 1.472.72 2.776 1.828 3.579l-1.752 2.427a7.4 7.4 0 01-3.074-6.008c0-4.093 3.322-7.412 7.42-7.412s7.42 3.319 7.42 7.412a7.4 7.4 0 01-3.058 5.996zm-4.346-7.784a1.784 1.784 0 11.002 3.568 1.784 1.784 0 01-.002-3.568z" fill="#fff"/><defs><linearGradient id="paint0_linear" x1="0" y1="0" x2="0" y2="24" gradientUnits="userSpaceOnUse"><stop stop-color="#00CCBF"/><stop offset="1" stop-color="#00B265"/></linearGradient><linearGradient id="paint1_linear" x1="1.57" y1="1.57" x2="1.57" y2="22.433" gradientUnits="userSpaceOnUse"><stop stop-color="#151515"/><stop offset="1" stop-color="#353535"/></linearGradient></defs></svg>
