<svg fill="none" height="24" width="24" xmlns="http://www.w3.org/2000/svg"><rect fill="#fc7e0f" height="24" rx="12" width="24"/><path clip-rule="evenodd" d="m12 21.6c-5.32 0-9.6-4.28-9.6-9.6s4.28-9.6 9.6-9.6 9.6 4.28 9.6 9.6-4.28 9.6-9.6 9.6zm0-3.8.72-.72-.72-2.76-.72 2.76zm-.92-.04-.36 1.36.84-.84zm1.84 0-.48.48.84.84zm.68 2.48-1.6-1.6-1.6 1.6c.52.08 1.04.16 1.6.16s1.08-.04 1.6-.16zm-1.6-16.64a8.4 8.4 0 0 0 -8.4 8.4c0 3.68 2.36 6.8 5.64 7.92l1.8-6.68c-.4-.28-.64-.76-.64-1.28 0-.88.72-1.6 1.6-1.6s1.6.72 1.6 1.6c0 .52-.24.96-.64 1.28l1.8 6.68a8.36 8.36 0 0 0 5.64-7.92 8.4 8.4 0 0 0 -8.4-8.4zm5.48 12.56a.62.62 0 0 1 -.84.12.544.544 0 0 1 -.12-.8s1.08-1.44 1.08-3.48-1.08-3.48-1.08-3.48c-.2-.24-.16-.6.12-.8s.64-.12.84.12c.08.08 1.32 1.72 1.32 4.16s-1.24 4.08-1.32 4.16zm-2.92-1.56c-.24-.24-.2-.68.04-.92 0 0 .6-.64.6-1.68s-.6-1.64-.6-1.68c-.24-.24-.24-.64-.04-.92.24-.28.6-.28.84-.04.04.04 1 1.04 1 2.64s-.96 2.6-1 2.64c-.24.24-.6.2-.84-.04zm-5.12 0c-.24.24-.6.28-.84.04-.04-.08-1-1.04-1-2.64s.96-2.56 1-2.64c.24-.24.64-.24.84.04.24.24.2.68-.04.92 0 .04-.6.64-.6 1.68s.6 1.68.6 1.68c.24.24.28.64.04.92zm-2.08 1.68a.62.62 0 0 1 -.84-.12c-.08-.08-1.32-1.72-1.32-4.16s1.24-4.08 1.32-4.16c.2-.24.56-.32.84-.12s.32.56.12.8c0 0-1.08 1.44-1.08 3.48s1.08 3.48 1.08 3.48c.2.24.12.6-.12.8z" fill="#fff" fill-rule="evenodd"/></svg>