<svg width="24" height="24" fill="none" xmlns="http://www.w3.org/2000/svg"><rect width="24" height="24" rx="12" fill="#FC7E0F"/><path fill-rule="evenodd" clip-rule="evenodd" d="M12 21.6c-5.32 0-9.6-4.28-9.6-9.6 0-5.32 4.28-9.6 9.6-9.6 5.32 0 9.6 4.28 9.6 9.6 0 5.32-4.28 9.6-9.6 9.6zm0-3.8l.72-.72-.72-2.76-.72 2.76.72.72zm-.92-.04l-.36 1.36.84-.84-.48-.52zm1.84 0l-.48.48.84.84-.36-1.32zm.68 2.48l-1.6-1.6-1.6 1.6c.52.08 1.04.16 1.6.16s1.08-.04 1.6-.16zM12 3.6A8.4 8.4 0 003.6 12c0 3.68 2.36 6.8 5.64 7.92l1.8-6.68c-.4-.28-.64-.76-.64-1.28 0-.88.72-1.6 1.6-1.6.88 0 1.6.72 1.6 1.6 0 .52-.24.96-.64 1.28l1.8 6.68A8.36 8.36 0 0020.4 12 8.4 8.4 0 0012 3.6zm5.48 12.56a.62.62 0 01-.84.12.544.544 0 01-.12-.8S17.6 14.04 17.6 12s-1.08-3.48-1.08-3.48c-.2-.24-.16-.6.12-.8.28-.2.64-.12.84.12.08.08 1.32 1.72 1.32 4.16 0 2.44-1.24 4.08-1.32 4.16zm-2.92-1.56c-.24-.24-.2-.68.04-.92 0 0 .6-.64.6-1.68s-.6-1.64-.6-1.68c-.24-.24-.24-.64-.04-.92.24-.28.6-.28.84-.04.04.04 1 1.04 1 2.64s-.96 2.6-1 2.64c-.24.24-.6.2-.84-.04zm-5.12 0c-.24.24-.6.28-.84.04-.04-.08-1-1.04-1-2.64s.96-2.56 1-2.64c.24-.24.64-.24.84.04.24.24.2.68-.04.92 0 .04-.6.64-.6 1.68s.6 1.68.6 1.68c.24.24.28.64.04.92zm-2.08 1.68a.62.62 0 01-.84-.12C6.44 16.08 5.2 14.44 5.2 12c0-2.44 1.24-4.08 1.32-4.16.2-.24.56-.32.84-.12.28.2.32.56.12.8 0 0-1.08 1.44-1.08 3.48s1.08 3.48 1.08 3.48c.2.24.12.6-.12.8z" fill="#fff"/></svg>
