<svg width="24" height="24" fill="none" xmlns="http://www.w3.org/2000/svg"><path d="M24 0H0v24h24V0z" fill="#F78422"/><path d="M15.498 8.494A11.897 11.897 0 007.038 5v2.347c2.57 0 4.983.997 6.797 2.807a9.515 9.515 0 012.812 6.78H19c0-3.19-1.244-6.187-3.502-8.44z" fill="#fff"/><path d="M7.015 8.972v2.347c3.103 0 5.627 2.52 5.627 5.616h2.353c0-4.39-3.58-7.963-7.98-7.963z" fill="#fff"/><path d="M8.685 17c.93 0 1.685-.753 1.685-1.681 0-.929-.755-1.681-1.685-1.681S7 14.39 7 15.318C7 16.249 7.754 17 8.685 17z" fill="#fff"/></svg>
